<svg width="390" height="544" viewBox="0 0 390 544" fill="none" xmlns="http://www.w3.org/2000/svg">
<g filter="url(#filter0_d_72_490)">
<path fill-rule="evenodd" clip-rule="evenodd" d="M58 46C46.9543 46 38 54.9543 38 66V470C38 480.77 46.5136 489.552 57.1783 489.983C57.0612 489.34 57 488.677 57 488C57 481.925 61.9249 477 68 477C74.0751 477 79 481.925 79 488C79 488.683 78.9378 489.351 78.8186 490H89.1814C89.0622 489.351 89 488.683 89 488C89 481.925 93.9249 477 100 477C106.075 477 111 481.925 111 488C111 488.683 110.938 489.351 110.819 490H121.181C121.062 489.351 121 488.683 121 488C121 481.925 125.925 477 132 477C138.075 477 143 481.925 143 488C143 488.683 142.938 489.351 142.819 490H153.181C153.062 489.351 153 488.683 153 488C153 481.925 157.925 477 164 477C170.075 477 175 481.925 175 488C175 488.683 174.938 489.351 174.819 490H185.181C185.062 489.351 185 488.683 185 488C185 481.925 189.925 477 196 477C202.075 477 207 481.925 207 488C207 488.683 206.938 489.351 206.819 490H217.181C217.062 489.351 217 488.683 217 488C217 481.925 221.925 477 228 477C234.075 477 239 481.925 239 488C239 488.683 238.938 489.351 238.819 490H249.181C249.062 489.351 249 488.683 249 488C249 481.925 253.925 477 260 477C266.075 477 271 481.925 271 488C271 488.683 270.938 489.351 270.819 490H281.181C281.062 489.351 281 488.683 281 488C281 481.925 285.925 477 292 477C298.075 477 303 481.925 303 488C303 488.683 302.938 489.351 302.819 490H313.181C313.062 489.351 313 488.683 313 488C313 481.925 317.925 477 324 477C330.075 477 335 481.925 335 488C335 488.654 334.943 489.295 334.834 489.917C345.02 488.991 353 480.428 353 470V66C353 54.9543 344.046 46 333 46H58Z" fill="white"/>
</g>
<defs>
<filter id="filter0_d_72_490" x="-12" y="0" width="415" height="544" filterUnits="userSpaceOnUse" color-interpolation-filters="sRGB">
<feFlood flood-opacity="0" result="BackgroundImageFix"/>
<feColorMatrix in="SourceAlpha" type="matrix" values="0 0 0 0 0 0 0 0 0 0 0 0 0 0 0 0 0 0 127 0" result="hardAlpha"/>
<feOffset dy="4"/>
<feGaussianBlur stdDeviation="25"/>
<feComposite in2="hardAlpha" operator="out"/>
<feColorMatrix type="matrix" values="0 0 0 0 0 0 0 0 0 0 0 0 0 0 0 0 0 0 0.05 0"/>
<feBlend mode="normal" in2="BackgroundImageFix" result="effect1_dropShadow_72_490"/>
<feBlend mode="normal" in="SourceGraphic" in2="effect1_dropShadow_72_490" result="shape"/>
</filter>
</defs>
</svg>
